<svg xmlns="http://www.w3.org/2000/svg" viewBox="0 0 180 180"><defs><linearGradient id="bl" x1="0" y1="0" x2="1" y2="1"><stop offset="0" stop-color="#7B9DEE"></stop><stop offset="1" stop-color="#4A6DD2"></stop></linearGradient><linearGradient id="nv" x1="0" y1="0" x2="0" y2="1"><stop offset="0" stop-color="#1D2B78"></stop><stop offset="1" stop-color="#0D1638"></stop></linearGradient><linearGradient id="cd" x1="0" y1="0" x2="1" y2="1"><stop offset="0" stop-color="#86A6EC"></stop><stop offset="1" stop-color="#3F63C8"></stop></linearGradient><filter id="sh" x="-40%" y="-40%" width="180%" height="180%"><feDropShadow dx="0" dy="6" stdDeviation="7" flood-color="#050A22" flood-opacity=".5"></feDropShadow></filter><filter id="gr" x="0" y="0" width="100%" height="100%"><feTurbulence type="fractalNoise" baseFrequency="1.3" numOctaves="2" seed="4"></feTurbulence><feColorMatrix type="saturate" values="0"></feColorMatrix><feComponentTransfer><feFuncR type="linear" slope="2.2" intercept="-.6"></feFuncR><feFuncG type="linear" slope="2.2" intercept="-.6"></feFuncG><feFuncB type="linear" slope="2.2" intercept="-.6"></feFuncB><feFuncA type="linear" slope="0" intercept="1"></feFuncA></feComponentTransfer></filter><clipPath id="rh"><rect x="90" y="0" width="90" height="180"></rect></clipPath><clipPath id="lh"><rect x="0" y="0" width="90" height="180"></rect></clipPath><clipPath id="cc"><rect x="50" y="30" width="80" height="118" rx="14"></rect></clipPath><radialGradient id="lc" cx=".82" cy=".12" r="1.05"><stop offset="0" stop-color="#E6FA3C" stop-opacity=".62"></stop><stop offset=".3" stop-color="#E6FA3C" stop-opacity=".4"></stop><stop offset=".6" stop-color="#E6FA3C" stop-opacity=".16"></stop><stop offset="1" stop-color="#E6FA3C" stop-opacity="0"></stop></radialGradient><linearGradient id="ls" x1="0" y1="0" x2="1" y2="1"><stop offset=".25" stop-color="#fff"></stop><stop offset="1" stop-color="#DDF23C"></stop></linearGradient><linearGradient id="lb" x1="0" y1="0" x2="1" y2="1"><stop offset="0" stop-color="#E9F77A"></stop><stop offset="1" stop-color="#B9CF3A"></stop></linearGradient></defs><rect width="180" height="180" fill="url(#nv)"></rect><g transform="translate(90 91) scale(0.88) translate(-90 -91)"><g transform="rotate(-18 90 172)"><rect x="50" y="34" width="80" height="118" rx="14" fill="#23389A" ></rect></g><g transform="rotate(18 90 172)"><rect x="50" y="34" width="80" height="118" rx="14" fill="#3F63C8" ></rect></g><rect x="50" y="30" width="80" height="118" rx="14" fill="url(#cd)" filter="url(#sh)"></rect><rect x="50" y="30" width="80" height="118" rx="14" fill="url(#lc)" ></rect><g transform="translate(90 89) scale(0.52) translate(-50 -50)"><path d="M50 12 C52 40 60 48 88 50 C60 52 52 60 50 88 C48 60 40 52 12 50 C40 48 48 40 50 12 Z" fill="#fff" stroke="#fff" stroke-width="2" stroke-linejoin="round"></path></g></g><rect width="180" height="180" filter="url(#gr)" opacity="0.3" style="mix-blend-mode: overlay"></rect></svg>
